<svg width="14" height="14" viewBox="0 0 14 14" fill="none" xmlns="http://www.w3.org/2000/svg">
<g clip-path="url(#clip0_3234_86)">
<path d="M11.8125 3.9375H2.1875C1.94588 3.9375 1.75 4.13338 1.75 4.375V10.9375C1.75 11.1791 1.94588 11.375 2.1875 11.375H11.8125C12.0541 11.375 12.25 11.1791 12.25 10.9375V4.375C12.25 4.13338 12.0541 3.9375 11.8125 3.9375Z" stroke="black" stroke-linecap="round" stroke-linejoin="round"/>
<path d="M4.8125 5.25V3.5C4.8125 2.91984 5.04297 2.36344 5.4532 1.9532C5.86344 1.54297 6.41984 1.3125 7 1.3125C7.58016 1.3125 8.13656 1.54297 8.5468 1.9532C8.95703 2.36344 9.1875 2.91984 9.1875 3.5V5.25" stroke="black" stroke-linecap="round" stroke-linejoin="round"/>
</g>
<defs>
<clipPath id="clip0_3234_86">
<rect width="14" height="14" fill="white"/>
</clipPath>
</defs>
</svg>
