<svg width="14" height="14" viewBox="0 0 14 14" fill="none" xmlns="http://www.w3.org/2000/svg">
<g clip-path="url(#clip0_3234_77)">
<path d="M9.40625 6.5625C9.40625 7.03841 9.26513 7.50363 9.00073 7.89934C8.73632 8.29505 8.36052 8.60346 7.92083 8.78558C7.48115 8.96771 6.99733 9.01536 6.53057 8.92251C6.0638 8.82967 5.63505 8.6005 5.29853 8.26398C4.96201 7.92746 4.73283 7.4987 4.63999 7.03194C4.54714 6.56517 4.59479 6.08135 4.77692 5.64167C4.95904 5.20198 5.26746 4.82618 5.66316 4.56178C6.05887 4.29737 6.52409 4.15625 7 4.15625C7.63796 4.15697 8.24958 4.41072 8.70068 4.86182C9.15178 5.31293 9.40553 5.92454 9.40625 6.5625ZM12.6875 7C12.6875 8.12488 12.3539 9.2245 11.729 10.1598C11.104 11.0951 10.2158 11.8241 9.17651 12.2546C8.13726 12.685 6.99369 12.7977 5.89043 12.5782C4.78716 12.3588 3.77374 11.8171 2.97833 11.0217C2.18292 10.2263 1.64124 9.21284 1.42179 8.10958C1.20233 7.00631 1.31496 5.86274 1.74544 4.82349C2.17591 3.78423 2.90489 2.89597 3.8402 2.27102C4.7755 1.64607 5.87512 1.3125 7 1.3125C8.50793 1.31409 9.95365 1.91382 11.0199 2.98009C12.0862 4.04636 12.6859 5.49207 12.6875 7ZM11.8125 7C11.8118 6.35224 11.6805 5.71128 11.4264 5.11545C11.1723 4.51961 10.8006 3.98114 10.3336 3.53223C9.86667 3.08332 9.31395 2.7332 8.70856 2.50281C8.10316 2.27241 7.45752 2.16647 6.81024 2.19133C4.23446 2.29086 2.18039 4.43625 2.1875 7.01367C2.18997 8.18701 2.62272 9.31868 3.40375 10.1943C3.72183 9.73296 4.12587 9.33727 4.59375 9.02891C4.63364 9.00256 4.68107 8.99 4.72877 8.99317C4.77647 8.99633 4.82183 9.01503 4.85789 9.04641C5.45244 9.56066 6.21227 9.84367 6.99836 9.84367C7.78446 9.84367 8.54428 9.56066 9.13883 9.04641C9.1749 9.01503 9.22025 8.99633 9.26795 8.99317C9.31566 8.99 9.36308 9.00256 9.40297 9.02891C9.87145 9.33711 10.2761 9.7328 10.5946 10.1943C11.3795 9.31549 11.8131 8.17829 11.8125 7Z" fill="black"/>
</g>
<defs>
<clipPath id="clip0_3234_77">
<rect width="14" height="14" fill="white"/>
</clipPath>
</defs>
</svg>
